<svg width="704" height="704" xmlns="http://www.w3.org/2000/svg" version="1.1" xml:space="preserve">
 <metadata id="metadata8">image/svg+xml</metadata>

 <g>
  <title>Layer 1</title>
  <g id="g10" transform="matrix(1.43674, 0, 0, -1.43674, 0, 758.7)">
   <g id="g12" transform="translate(-149, 18) scale(0.1)">
    <path fill="#ffffff" fill-rule="nonzero" d="m6375.75867,2649.54748c0,-1347.56 -1092.41,-2439.97 -2439.99,-2439.97c-1347.56,0 -2440.01,1092.41 -2440.01,2439.97c0,1347.58 1092.45,2440.03 2440.01,2440.03c1347.58,0 2439.99,-1092.45 2439.99,-2440.03" id="path14"/>
    <path fill="none" stroke="#231f20" stroke-width="40" stroke-miterlimit="10" d="m6375.75867,2649.54748c0,-1347.56 -1092.41,-2439.97 -2439.99,-2439.97c-1347.56,0 -2440.01,1092.41 -2440.01,2439.97c0,1347.58 1092.45,2440.03 2440.01,2440.03c1347.58,0 2439.99,-1092.45 2439.99,-2440.03z" id="path16"/>
    <path fill="#231f20" fill-rule="nonzero" d="m2024.80867,3133.24748c4.7,-6.39 4.45,-12.2 -0.61,-17.31c-6.02,-5.15 -11.57,-4.73 -16.68,1.27c-11.12,14.12 -18.43,28.67 -21.82,43.64c-1.32,6.39 -1.93,13.13 -1.93,20.23c0,7.05 1.4,14.3 4.16,21.8c2.77,7.49 7.16,15.09 13.17,22.8c5.99,7.69 14.1,15.38 24.37,23.11c8.52,6.38 19.97,13.78 34.34,22.12c14.3,8.34 29.29,16.03 44.88,23.11c15.63,7.03 31.25,12.71 46.86,16.98c15.59,4.3 28.98,5.12 40.09,2.59c12.85,-2.15 20.74,-8.15 23.75,-17.96c3,-9.89 2.77,-20.37 -0.6,-31.48c-2.14,-7.67 -5.49,-18.94 -9.96,-33.65c-4.52,-14.8 -9.51,-32.02 -15.11,-51.69c-5.53,-19.67 -11.74,-41.39 -18.59,-65.12c-6.83,-23.76 -13.78,-48.36 -20.84,-73.8c-7.11,-25.47 -14.13,-51.25 -21.22,-77.33c-7.03,-26.08 -13.74,-51.33 -20.19,-75.71c-1.72,-6.43 -3.3,-12.64 -4.8,-18.62c-1.51,-6.01 -2.87,-11.98 -4.16,-17.98c12.83,31.67 27.25,65.89 43.26,102.67c16.08,36.81 32.86,72.44 50.4,106.86c17.55,34.44 35.31,65.87 53.27,94.36c17.96,28.42 35.31,49.9 51.98,64.46c3.03,2.57 7.09,4.82 12.22,6.74c5.1,1.91 10.31,3.21 15.71,3.83c5.32,0.67 10.59,0.67 15.7,0c5.12,-0.62 9.21,-2.45 12.17,-5.42c5.18,-6.41 7.95,-16.17 8.36,-29.23c0.44,-13.04 -0.71,-28.34 -3.5,-45.85c-2.81,-17.56 -6.73,-36.69 -11.91,-57.42c-5.12,-20.79 -10.59,-41.74 -16.35,-62.9c-5.78,-21.19 -11.55,-42.16 -17.33,-62.89c-5.73,-20.79 -10.79,-39.9 -15.07,-57.44c9.39,16.24 20.2,34.84 32.4,55.82c12.18,20.97 25.25,42.89 39.14,65.78c13.93,22.88 28.23,46.08 43.02,69.62c14.73,23.55 29.41,45.88 43.92,67.07c14.57,21.2 28.67,40.53 42.32,58.08c13.78,17.52 26.14,31.63 37.28,42.35c2.14,1.69 5.99,3.22 11.57,4.5c5.56,1.25 11.45,1.99 17.67,2.23c6.16,0.2 12.06,-0.43 17.58,-1.93c5.58,-1.5 9.46,-3.75 11.59,-6.74c5.56,-7.67 7.15,-21.07 4.81,-40.11c-2.33,-19.02 -7.15,-42.13 -14.46,-69.29c-7.28,-27.16 -16.36,-57.43 -27.26,-90.81c-10.91,-33.37 -22.35,-68.35 -34.31,-104.89c-12.02,-36.6 -23.87,-74.06 -35.67,-112.31c-11.75,-38.32 -22.03,-75.76 -30.76,-112.31c-8.77,-36.59 -15.51,-71.66 -20.21,-105.27c-4.78,-33.54 -6.03,-63.91 -3.88,-91.1c2.16,-27.16 8.36,-50.38 18.61,-69.62c10.31,-19.25 25.9,-32.95 46.85,-41.06c2.96,-0.85 5.01,-2.94 6.12,-6.11c1.03,-3.2 0.91,-6.53 -0.36,-9.94c-1.29,-2.57 -3.31,-4.52 -6.09,-5.78c-2.76,-1.28 -5.88,-1.07 -9.3,0.62c-25.67,11.98 -45.91,29.77 -60.6,53.27c-14.82,23.54 -25.18,51.02 -31.14,82.48c-6.01,31.44 -8.47,65.86 -7.41,103.3c1.08,37.42 4.68,76.05 10.93,115.83c6.2,39.8 14.15,79.78 23.74,120.02c9.61,40.2 19.91,78.82 30.82,115.84c10.92,36.96 21.68,71.53 32.37,103.62c10.71,32.07 20.25,59.67 28.56,82.75c8.36,23.14 14.8,40.87 19.29,53.28c4.47,12.39 5.89,17.74 4.17,16.05c-8.96,-8.97 -19.39,-21.81 -31.15,-38.49c-11.79,-16.69 -24.35,-35.64 -37.82,-56.8c-13.5,-21.17 -27.44,-43.63 -41.74,-67.39c-14.37,-23.74 -28.36,-47.5 -42.04,-71.22c-13.68,-23.76 -26.54,-46.44 -38.49,-68.04c-12.02,-21.6 -22.57,-40.64 -31.79,-57.11c-9.2,-16.45 -19.14,-34.78 -29.81,-54.86c-1.75,-3.01 -4.09,-4.91 -7.07,-5.77c-2.97,-0.87 -6.01,-0.41 -8.99,1.27c-1.31,0.85 -2.78,2.57 -4.5,5.16c-2.54,2.98 -5.57,6.62 -8.97,10.91c-3.48,4.25 -6.64,8.51 -9.6,12.82c-3.01,4.29 -5.39,8.24 -7.12,11.87c-1.65,3.64 -2.32,6.11 -1.87,7.39c-2.21,5.12 -2.23,14 -0.39,26.62c1.94,12.63 4.86,27.38 8.68,44.26c3.86,16.91 8.59,35.2 14.17,54.91c5.53,19.64 11.1,39.21 16.66,58.68c5.5,19.47 10.69,37.86 15.42,55.19c4.66,17.33 8.44,32.19 11.19,44.58c2.8,12.43 4.2,21.4 4.2,26.97c0,5.55 -2.14,6.43 -6.41,2.57c-12,-11.15 -24.51,-26.61 -37.58,-46.5c-13.06,-19.9 -26.08,-42.17 -39.11,-66.74c-13.04,-24.62 -25.78,-50.71 -38.16,-78.3c-12.43,-27.6 -24.36,-54.98 -35.62,-82.14c-11.4,-27.17 -21.81,-53.16 -31.48,-77.97c-9.62,-24.82 -17.89,-46.72 -24.72,-65.77c-6.84,-19.05 -14.32,-39.89 -22.44,-62.55c-0.83,-1.74 -1.53,-2.82 -1.93,-3.24c-0.85,-7.69 -4.71,-11.54 -11.53,-11.54c-3.43,0 -6.25,1.17 -8.38,3.53c-2.14,2.33 -3.19,5.24 -3.19,8.68c0,11.1 2.44,30.68 7.39,58.7c4.9,28 11.22,60.43 18.93,97.2c7.67,36.8 16.24,75.74 25.65,116.81c9.41,41.05 18.63,80.32 27.62,117.75c8.99,37.4 17.18,70.69 24.69,99.78c7.5,29.09 13.17,50.06 16.98,62.9c2.61,7.68 3.58,13.48 2.92,17.33c-0.66,3.82 -2.25,6.19 -4.78,7.06c-2.64,0.85 -5.79,0.85 -9.66,0c-3.82,-0.87 -7.88,-1.94 -12.16,-3.24c-9.89,-3.41 -20.12,-7.57 -30.81,-12.49c-10.74,-4.93 -21.13,-9.92 -31.17,-15.11c-10.05,-5.12 -19.36,-10.15 -27.9,-15.06c-8.52,-4.91 -15.37,-9.29 -20.54,-13.15c-14.95,-11.14 -24.08,-22.46 -27.26,-34.02c-3.17,-11.53 -3.56,-22.23 -0.94,-32.1c2.57,-11.1 8.32,-22.23 17.29,-33.35" id="path18"/>
    <path fill="none" stroke="#231f20" stroke-width="10" stroke-miterlimit="10" d="m2024.80867,3133.24748c4.7,-6.39 4.45,-12.2 -0.61,-17.31c-6.02,-5.15 -11.57,-4.73 -16.68,1.27c-11.12,14.12 -18.43,28.67 -21.82,43.64c-1.32,6.39 -1.93,13.13 -1.93,20.23c0,7.05 1.4,14.3 4.16,21.8c2.77,7.49 7.16,15.09 13.17,22.8c5.99,7.69 14.1,15.38 24.37,23.11c8.52,6.38 19.97,13.78 34.34,22.12c14.3,8.34 29.29,16.03 44.88,23.11c15.63,7.03 31.25,12.71 46.86,16.98c15.59,4.3 28.98,5.12 40.09,2.59c12.85,-2.15 20.74,-8.15 23.75,-17.96c3,-9.89 2.77,-20.37 -0.6,-31.48c-2.14,-7.67 -5.49,-18.94 -9.96,-33.65c-4.52,-14.8 -9.51,-32.02 -15.11,-51.69c-5.53,-19.67 -11.74,-41.39 -18.59,-65.12c-6.83,-23.76 -13.78,-48.36 -20.84,-73.8c-7.11,-25.47 -14.13,-51.25 -21.22,-77.33c-7.03,-26.08 -13.74,-51.33 -20.19,-75.71c-1.72,-6.43 -3.3,-12.64 -4.8,-18.62c-1.51,-6.01 -2.87,-11.98 -4.16,-17.98c12.83,31.67 27.25,65.89 43.26,102.67c16.08,36.81 32.86,72.44 50.4,106.86c17.55,34.44 35.31,65.87 53.27,94.36c17.96,28.42 35.31,49.9 51.98,64.46c3.03,2.57 7.09,4.82 12.22,6.74c5.1,1.91 10.31,3.21 15.71,3.83c5.32,0.67 10.59,0.67 15.7,0c5.12,-0.62 9.21,-2.45 12.17,-5.42c5.18,-6.41 7.95,-16.17 8.36,-29.23c0.44,-13.04 -0.71,-28.34 -3.5,-45.85c-2.81,-17.56 -6.73,-36.69 -11.91,-57.42c-5.12,-20.79 -10.59,-41.74 -16.35,-62.9c-5.78,-21.19 -11.55,-42.16 -17.33,-62.89c-5.73,-20.79 -10.79,-39.9 -15.07,-57.44c9.39,16.24 20.2,34.84 32.4,55.82c12.18,20.97 25.25,42.89 39.14,65.78c13.93,22.88 28.23,46.08 43.02,69.62c14.73,23.55 29.41,45.88 43.92,67.07c14.57,21.2 28.67,40.53 42.32,58.08c13.78,17.52 26.14,31.63 37.28,42.35c2.14,1.69 5.99,3.22 11.57,4.5c5.56,1.25 11.45,1.99 17.67,2.23c6.16,0.2 12.06,-0.43 17.58,-1.93c5.58,-1.5 9.46,-3.75 11.59,-6.74c5.56,-7.67 7.15,-21.07 4.81,-40.11c-2.33,-19.02 -7.15,-42.13 -14.46,-69.29c-7.28,-27.16 -16.36,-57.43 -27.26,-90.81c-10.91,-33.37 -22.35,-68.35 -34.31,-104.89c-12.02,-36.6 -23.87,-74.06 -35.67,-112.31c-11.75,-38.32 -22.03,-75.76 -30.76,-112.31c-8.77,-36.59 -15.51,-71.66 -20.21,-105.27c-4.78,-33.54 -6.03,-63.91 -3.88,-91.1c2.16,-27.16 8.36,-50.38 18.61,-69.62c10.31,-19.25 25.9,-32.95 46.85,-41.06c2.96,-0.85 5.01,-2.94 6.12,-6.11c1.03,-3.2 0.91,-6.53 -0.36,-9.94c-1.29,-2.57 -3.31,-4.52 -6.09,-5.78c-2.76,-1.28 -5.88,-1.07 -9.3,0.62c-25.67,11.98 -45.91,29.77 -60.6,53.27c-14.82,23.54 -25.18,51.02 -31.14,82.48c-6.01,31.44 -8.47,65.86 -7.41,103.3c1.08,37.42 4.68,76.05 10.93,115.83c6.2,39.8 14.15,79.78 23.74,120.02c9.61,40.2 19.91,78.82 30.82,115.84c10.92,36.96 21.68,71.53 32.37,103.62c10.71,32.07 20.25,59.67 28.56,82.75c8.36,23.14 14.8,40.87 19.29,53.28c4.47,12.39 5.89,17.74 4.17,16.05c-8.96,-8.97 -19.39,-21.81 -31.15,-38.49c-11.79,-16.69 -24.35,-35.64 -37.82,-56.8c-13.5,-21.17 -27.44,-43.63 -41.74,-67.39c-14.37,-23.74 -28.36,-47.5 -42.04,-71.22c-13.68,-23.76 -26.54,-46.44 -38.49,-68.04c-12.02,-21.6 -22.57,-40.64 -31.79,-57.11c-9.2,-16.45 -19.14,-34.78 -29.81,-54.86c-1.75,-3.01 -4.09,-4.91 -7.07,-5.77c-2.97,-0.87 -6.01,-0.41 -8.99,1.27c-1.31,0.85 -2.78,2.57 -4.5,5.16c-2.54,2.98 -5.57,6.62 -8.97,10.91c-3.48,4.25 -6.64,8.51 -9.6,12.82c-3.01,4.29 -5.39,8.24 -7.12,11.87c-1.65,3.64 -2.32,6.11 -1.87,7.39c-2.21,5.12 -2.23,14 -0.39,26.62c1.94,12.63 4.86,27.38 8.68,44.26c3.86,16.91 8.59,35.2 14.17,54.91c5.53,19.64 11.1,39.21 16.66,58.68c5.5,19.47 10.69,37.86 15.42,55.19c4.66,17.33 8.44,32.19 11.19,44.58c2.8,12.43 4.2,21.4 4.2,26.97c0,5.55 -2.14,6.43 -6.41,2.57c-12,-11.15 -24.51,-26.61 -37.58,-46.5c-13.06,-19.9 -26.08,-42.17 -39.11,-66.74c-13.04,-24.62 -25.78,-50.71 -38.16,-78.3c-12.43,-27.6 -24.36,-54.98 -35.62,-82.14c-11.4,-27.17 -21.81,-53.16 -31.48,-77.97c-9.62,-24.82 -17.89,-46.72 -24.72,-65.77c-6.84,-19.05 -14.32,-39.89 -22.44,-62.55c-0.83,-1.74 -1.53,-2.82 -1.93,-3.24c-0.85,-7.69 -4.71,-11.54 -11.53,-11.54c-3.43,0 -6.25,1.17 -8.38,3.53c-2.14,2.33 -3.19,5.24 -3.19,8.68c0,11.1 2.44,30.68 7.39,58.7c4.9,28 11.22,60.43 18.93,97.2c7.67,36.8 16.24,75.74 25.65,116.81c9.41,41.05 18.63,80.32 27.62,117.75c8.99,37.4 17.18,70.69 24.69,99.78c7.5,29.09 13.17,50.06 16.98,62.9c2.61,7.68 3.58,13.48 2.92,17.33c-0.66,3.82 -2.25,6.19 -4.78,7.06c-2.64,0.85 -5.79,0.85 -9.66,0c-3.82,-0.87 -7.88,-1.94 -12.16,-3.24c-9.89,-3.41 -20.12,-7.57 -30.81,-12.49c-10.74,-4.93 -21.13,-9.92 -31.17,-15.11c-10.05,-5.12 -19.36,-10.15 -27.9,-15.06c-8.52,-4.91 -15.37,-9.29 -20.54,-13.15c-14.95,-11.14 -24.08,-22.46 -27.26,-34.02c-3.17,-11.53 -3.56,-22.23 -0.94,-32.1c2.57,-11.1 8.32,-22.23 17.29,-33.35z" id="path20"/>
    <path fill="#231f20" fill-rule="nonzero" d="m2617.78867,3001.05748c7.24,0 13.58,-2.68 18.89,-8.03c5.37,-5.36 8.04,-11.66 8.04,-18.91c0,-7.29 -2.67,-13.59 -8.04,-18.95c-5.31,-5.34 -11.65,-8 -18.89,-8c-7.32,0 -13.57,2.66 -18.97,8c-5.32,5.36 -8,11.66 -8,18.95c0,7.25 2.68,13.55 8,18.91c5.4,5.35 11.65,8.03 18.97,8.03m-28.26,-79.57c1.29,-0.85 3.86,-2.68 7.69,-5.46c3.84,-2.77 7.92,-5.89 12.21,-9.3c4.29,-3.42 7.78,-6.85 10.61,-10.27c2.74,-3.43 3.91,-5.75 3.51,-7.04c-1.75,-4.3 -4.2,-10.94 -7.4,-19.89c-3.16,-9 -6.28,-19.06 -9.28,-30.18c-3.02,-11.13 -5.6,-22.75 -7.73,-34.97c-2.14,-12.17 -3.08,-23.67 -2.86,-34.33c0.18,-10.7 2.14,-20.2 5.78,-28.56c3.62,-8.35 9.72,-14.01 18.27,-17c8.12,-3.43 18.38,-2.25 30.83,3.54c12.4,5.75 25.32,14.2 38.79,25.34c13.5,11.11 27.14,23.82 41.1,38.18c13.89,14.32 26.47,28.55 37.87,42.66c11.29,14.14 20.92,27.19 28.82,39.17c7.93,11.99 12.97,20.95 15.08,26.93c1.74,2.58 3.99,4.29 6.78,5.15c2.74,0.84 5.46,0.42 8.01,-1.27c2.97,-1.3 4.91,-3.47 5.76,-6.43c0.86,-3.02 0.46,-5.8 -1.26,-8.34c-6.02,-11.14 -13.58,-23.21 -22.77,-36.28c-9.26,-13.04 -19.39,-26.4 -30.48,-40.08c-11.12,-13.71 -23.18,-27.19 -36.28,-40.44c-13.06,-13.27 -26.19,-25.25 -39.47,-35.97c-20.95,-16.66 -41.82,-29.39 -62.57,-38.16c-20.77,-8.76 -40.1,-10.8 -58.06,-6.07c-14.57,4.27 -24.91,12.7 -31.12,25.32c-6.2,12.63 -9.51,27.18 -9.95,43.65c-0.45,16.48 1.05,33.69 4.48,51.67c3.43,17.95 7.3,34.54 11.57,49.72c4.29,15.16 10.03,32.62 17.27,52.28c3.07,6.43 7.97,8.58 14.8,6.43" id="path22"/>
    <path fill="none" stroke="#231f20" stroke-width="10" stroke-miterlimit="10" d="m2617.78867,3001.05748c7.24,0 13.58,-2.68 18.89,-8.03c5.37,-5.36 8.04,-11.66 8.04,-18.91c0,-7.29 -2.67,-13.59 -8.04,-18.95c-5.31,-5.34 -11.65,-8 -18.89,-8c-7.32,0 -13.57,2.66 -18.97,8c-5.32,5.36 -8,11.66 -8,18.95c0,7.25 2.68,13.55 8,18.91c5.4,5.35 11.65,8.03 18.97,8.03zm-28.26,-79.57c1.29,-0.85 3.86,-2.68 7.69,-5.46c3.84,-2.77 7.92,-5.89 12.21,-9.3c4.29,-3.42 7.78,-6.85 10.61,-10.27c2.74,-3.43 3.91,-5.75 3.51,-7.04c-1.75,-4.3 -4.2,-10.94 -7.4,-19.89c-3.16,-9 -6.28,-19.06 -9.28,-30.18c-3.02,-11.13 -5.6,-22.75 -7.73,-34.97c-2.14,-12.17 -3.08,-23.67 -2.86,-34.33c0.18,-10.7 2.14,-20.2 5.78,-28.56c3.62,-8.35 9.72,-14.01 18.27,-17c8.12,-3.43 18.38,-2.25 30.83,3.54c12.4,5.75 25.32,14.2 38.79,25.34c13.5,11.11 27.14,23.82 41.1,38.18c13.89,14.32 26.47,28.55 37.87,42.66c11.29,14.14 20.92,27.19 28.82,39.17c7.93,11.99 12.97,20.95 15.08,26.93c1.74,2.58 3.99,4.29 6.78,5.15c2.74,0.84 5.46,0.42 8.01,-1.27c2.97,-1.3 4.91,-3.47 5.76,-6.43c0.86,-3.02 0.46,-5.8 -1.26,-8.34c-6.02,-11.14 -13.58,-23.21 -22.77,-36.28c-9.26,-13.04 -19.39,-26.4 -30.48,-40.08c-11.12,-13.71 -23.18,-27.19 -36.28,-40.44c-13.06,-13.27 -26.19,-25.25 -39.47,-35.97c-20.95,-16.66 -41.82,-29.39 -62.57,-38.16c-20.77,-8.76 -40.1,-10.8 -58.06,-6.07c-14.57,4.27 -24.91,12.7 -31.12,25.32c-6.2,12.63 -9.51,27.18 -9.95,43.65c-0.45,16.48 1.05,33.69 4.48,51.67c3.43,17.95 7.3,34.54 11.57,49.72c4.29,15.16 10.03,32.62 17.27,52.28c3.07,6.43 7.97,8.58 14.8,6.43z" id="path24"/>
    <path fill="#231f20" fill-rule="nonzero" d="m2852.63867,2873.37748c4.68,4.25 11.95,10.77 21.84,19.56c9.79,8.75 18.98,18.29 27.56,28.55c8.55,10.25 14.87,20.32 18.93,30.18c4.02,9.84 2.69,17.95 -4.16,24.37c-3,2.99 -6.53,5.04 -10.59,6.08c-4.08,1.07 -8.26,1.18 -12.54,0.32c-11.93,-1.27 -21.14,-6 -27.58,-14.09c-6.44,-8.13 -10.9,-17.66 -13.46,-28.57c-2.54,-10.9 -3.66,-22.34 -3.19,-34.32c0.42,-11.98 1.46,-22.68 3.19,-32.08m-45.56,-156.57c-12.4,-6.42 -25.38,-13.94 -38.85,-22.49c-13.45,-8.54 -25.43,-17.42 -35.92,-26.61c-10.48,-9.22 -18.78,-18.82 -25.02,-28.9c-6.21,-10.03 -8.26,-19.77 -6.1,-29.19c1.73,-6.41 6.31,-11.13 13.79,-14.11c7.51,-2.98 16.59,-4.07 27.24,-3.23c17.55,3.44 31.38,9 41.44,16.7c10.06,7.73 17.23,17.03 21.5,27.92c4.3,10.91 6.27,23.17 6.05,36.9c-0.2,13.67 -1.53,28.02 -4.13,43.01m-5.18,22.41c-3.8,17.13 -7.86,34.99 -12.13,53.6c-4.27,18.62 -7.76,37.03 -10.31,55.21c-2.56,18.18 -3.38,35.82 -2.56,52.93c0.9,17.1 4.71,32.64 11.54,46.55c6.85,13.87 17.35,25.84 31.48,35.91c14.11,10.05 33.14,17.22 57.09,21.52c9.82,1.68 19.68,1.68 29.52,0c9.84,-1.73 18.38,-6.02 25.7,-12.87c7.65,-7.26 12.07,-14.97 13.16,-23.08c1.03,-8.14 0,-16.61 -3.26,-25.35c-3.17,-8.77 -8.14,-17.43 -14.72,-25.97c-6.69,-8.61 -13.74,-16.71 -21.19,-24.44c-7.47,-7.67 -14.99,-14.84 -22.46,-21.45c-7.45,-6.65 -13.77,-12.36 -18.89,-17.02l-7.75,-6.41c2.96,-13.7 6.11,-27.5 9.3,-41.43c3.21,-13.89 5.89,-25.09 8.06,-33.64c12.35,5.11 28.44,11.64 48.06,19.54c19.7,7.92 39.3,16.6 58.76,26.03c19.43,9.37 37.3,19.43 53.58,30.12c16.25,10.72 27.38,21.17 33.39,31.45c1.66,3 3.91,4.84 6.72,5.47c2.77,0.62 5.33,0.21 7.7,-1.27c2.34,-1.54 4.17,-3.66 5.47,-6.45c1.26,-2.75 1.05,-5.66 -0.7,-8.64c-7.25,-12.4 -19.4,-24.4 -36.53,-35.95c-17.13,-11.57 -35.95,-22.46 -56.46,-32.71c-20.59,-10.27 -41.21,-19.7 -61.94,-28.25c-20.81,-8.58 -38.18,-15.82 -52.29,-21.83c5.55,-24.37 6.08,-47.17 1.58,-68.33c-4.5,-21.17 -12.94,-39.7 -25.32,-55.52c-12.42,-15.82 -28.36,-28.63 -47.83,-38.48c-19.43,-9.84 -40.93,-15.84 -64.5,-18c-16.23,-1.27 -30.35,1.07 -42.37,7.1c-11.94,5.97 -19.18,15.38 -21.77,28.22c-3.01,13.26 -1.09,26.18 5.75,38.82c6.83,12.62 16.48,24.69 28.88,36.25c12.43,11.57 26.41,22.25 42.03,32.11c15.61,9.8 30.72,18.58 45.21,26.26" id="path26"/>
    <path fill="none" stroke="#231f20" stroke-width="10" stroke-miterlimit="10" d="m2852.63867,2873.37748c4.68,4.25 11.95,10.77 21.84,19.56c9.79,8.75 18.98,18.29 27.56,28.55c8.55,10.25 14.87,20.32 18.93,30.18c4.02,9.84 2.69,17.95 -4.16,24.37c-3,2.99 -6.53,5.04 -10.59,6.08c-4.08,1.07 -8.26,1.18 -12.54,0.32c-11.93,-1.27 -21.14,-6 -27.58,-14.09c-6.44,-8.13 -10.9,-17.66 -13.46,-28.57c-2.54,-10.9 -3.66,-22.34 -3.19,-34.32c0.42,-11.98 1.46,-22.68 3.19,-32.08zm-45.56,-156.57c-12.4,-6.42 -25.38,-13.94 -38.85,-22.49c-13.45,-8.54 -25.43,-17.42 -35.92,-26.61c-10.48,-9.22 -18.78,-18.82 -25.02,-28.9c-6.21,-10.03 -8.26,-19.77 -6.1,-29.19c1.73,-6.41 6.31,-11.13 13.79,-14.11c7.51,-2.98 16.59,-4.07 27.24,-3.23c17.55,3.44 31.38,9 41.44,16.7c10.06,7.73 17.23,17.03 21.5,27.92c4.3,10.91 6.27,23.17 6.05,36.9c-0.2,13.67 -1.53,28.02 -4.13,43.01zm-5.18,22.41c-3.8,17.13 -7.86,34.99 -12.13,53.6c-4.27,18.62 -7.76,37.03 -10.31,55.21c-2.56,18.18 -3.38,35.82 -2.56,52.93c0.9,17.1 4.71,32.64 11.54,46.55c6.85,13.87 17.35,25.84 31.48,35.91c14.11,10.05 33.14,17.22 57.09,21.52c9.82,1.68 19.68,1.68 29.52,0c9.84,-1.73 18.38,-6.02 25.7,-12.87c7.65,-7.26 12.07,-14.97 13.16,-23.08c1.03,-8.14 0,-16.61 -3.26,-25.35c-3.17,-8.77 -8.14,-17.43 -14.72,-25.97c-6.69,-8.61 -13.74,-16.71 -21.19,-24.44c-7.47,-7.67 -14.99,-14.84 -22.46,-21.45c-7.45,-6.65 -13.77,-12.36 -18.89,-17.02l-7.75,-6.41c2.96,-13.7 6.11,-27.5 9.3,-41.43c3.21,-13.89 5.89,-25.09 8.06,-33.64c12.35,5.11 28.44,11.64 48.06,19.54c19.7,7.92 39.3,16.6 58.76,26.03c19.43,9.37 37.3,19.43 53.58,30.12c16.25,10.72 27.38,21.17 33.39,31.45c1.66,3 3.91,4.84 6.72,5.47c2.77,0.62 5.33,0.21 7.7,-1.27c2.34,-1.54 4.17,-3.66 5.47,-6.45c1.26,-2.75 1.05,-5.66 -0.7,-8.64c-7.25,-12.4 -19.4,-24.4 -36.53,-35.95c-17.13,-11.57 -35.95,-22.46 -56.46,-32.71c-20.59,-10.27 -41.21,-19.7 -61.94,-28.25c-20.81,-8.58 -38.18,-15.82 -52.29,-21.83c5.55,-24.37 6.08,-47.17 1.58,-68.33c-4.5,-21.17 -12.94,-39.7 -25.32,-55.52c-12.42,-15.82 -28.36,-28.63 -47.83,-38.48c-19.43,-9.84 -40.93,-15.84 -64.5,-18c-16.23,-1.27 -30.35,1.07 -42.37,7.1c-11.94,5.97 -19.18,15.38 -21.77,28.22c-3.01,13.26 -1.09,26.18 5.75,38.82c6.83,12.62 16.48,24.69 28.88,36.25c12.43,11.57 26.41,22.25 42.03,32.11c15.61,9.8 30.72,18.58 45.21,26.26z" id="path28"/>
    <path fill="#231f20" fill-rule="nonzero" d="m3119.58867,2873.37748c4.67,4.25 11.95,10.77 21.81,19.56c9.84,8.75 19.02,18.29 27.62,28.55c8.53,10.25 14.87,20.32 18.89,30.18c4.05,9.84 2.7,17.95 -4.14,24.37c-3.01,2.99 -6.54,5.04 -10.61,6.08c-4.09,1.07 -8.25,1.18 -12.52,0.32c-11.98,-1.27 -21.13,-6 -27.56,-14.09c-6.44,-8.13 -10.94,-17.66 -13.49,-28.57c-2.59,-10.9 -3.66,-22.34 -3.24,-34.32c0.42,-11.98 1.54,-22.68 3.24,-32.08m-45.58,-156.57c-12.39,-6.42 -25.33,-13.94 -38.84,-22.49c-13.42,-8.54 -25.41,-17.42 -35.9,-26.61c-10.5,-9.22 -18.84,-18.82 -25.02,-28.9c-6.2,-10.03 -8.23,-19.77 -6.11,-29.19c1.73,-6.41 6.31,-11.13 13.8,-14.11c7.46,-2.98 16.62,-4.07 27.26,-3.23c17.53,3.44 31.34,9 41.41,16.7c10.01,7.73 17.22,17.03 21.46,27.92c4.3,10.91 6.32,23.17 6.12,36.9c-0.21,13.67 -1.64,28.02 -4.18,43.01m-5.12,22.41c-3.87,17.13 -7.89,34.99 -12.18,53.6c-4.27,18.62 -7.72,37.03 -10.3,55.21c-2.54,18.18 -3.44,35.82 -2.54,52.93c0.83,17.1 4.68,32.64 11.53,46.55c6.86,13.87 17.36,25.84 31.46,35.91c14.06,10.05 33.13,17.22 57.12,21.52c9.82,1.68 19.63,1.68 29.51,0c9.83,-1.73 18.36,-6.02 25.65,-12.87c7.71,-7.26 12.1,-14.97 13.15,-23.08c1.08,-8.14 0,-16.61 -3.2,-25.35c-3.18,-8.77 -8.12,-17.43 -14.76,-25.97c-6.65,-8.61 -13.69,-16.71 -21.17,-24.44c-7.49,-7.67 -14.98,-14.84 -22.44,-21.45c-7.54,-6.65 -13.81,-12.36 -18.95,-17.02l-7.67,-6.41c2.98,-13.7 6.08,-27.5 9.29,-41.43c3.19,-13.89 5.84,-25.09 8.01,-33.64c12.4,5.11 28.43,11.64 48.1,19.54c19.71,7.92 39.29,16.6 58.75,26.03c19.45,9.37 37.29,19.43 53.6,30.12c16.23,10.72 27.35,21.17 33.36,31.45c1.68,3 3.91,4.84 6.74,5.47c2.78,0.62 5.36,0.21 7.66,-1.27c2.36,-1.54 4.2,-3.66 5.44,-6.45c1.34,-2.75 1.11,-5.66 -0.62,-8.64c-7.26,-12.4 -19.45,-24.4 -36.54,-35.95c-17.16,-11.57 -35.94,-22.46 -56.5,-32.71c-20.53,-10.27 -41.16,-19.7 -61.89,-28.25c-20.79,-8.58 -38.19,-15.82 -52.34,-21.83c5.62,-24.37 6.13,-47.17 1.61,-68.33c-4.48,-21.17 -12.92,-39.7 -25.32,-55.52c-12.41,-15.82 -28.34,-28.63 -47.84,-38.48c-19.47,-9.84 -40.9,-15.84 -64.5,-18c-16.22,-1.27 -30.32,1.07 -42.32,7.1c-11.99,5.97 -19.3,15.38 -21.84,28.22c-2.97,13.26 -1.06,26.18 5.78,38.82c6.86,12.62 16.45,24.69 28.91,36.25c12.39,11.57 26.37,22.25 42.02,32.11c15.62,9.8 30.7,18.58 45.23,26.26" id="path30"/>
    <path fill="none" stroke="#231f20" stroke-width="10" stroke-miterlimit="10" d="m3119.58867,2873.37748c4.67,4.25 11.95,10.77 21.81,19.56c9.84,8.75 19.02,18.29 27.62,28.55c8.53,10.25 14.87,20.32 18.89,30.18c4.05,9.84 2.7,17.95 -4.14,24.37c-3.01,2.99 -6.54,5.04 -10.61,6.08c-4.09,1.07 -8.25,1.18 -12.52,0.32c-11.98,-1.27 -21.13,-6 -27.56,-14.09c-6.44,-8.13 -10.94,-17.66 -13.49,-28.57c-2.59,-10.9 -3.66,-22.34 -3.24,-34.32c0.42,-11.98 1.54,-22.68 3.24,-32.08zm-45.58,-156.57c-12.39,-6.42 -25.33,-13.94 -38.84,-22.49c-13.42,-8.54 -25.41,-17.42 -35.9,-26.61c-10.5,-9.22 -18.84,-18.82 -25.02,-28.9c-6.2,-10.03 -8.23,-19.77 -6.11,-29.19c1.73,-6.41 6.31,-11.13 13.8,-14.11c7.46,-2.98 16.62,-4.07 27.26,-3.23c17.53,3.44 31.34,9 41.41,16.7c10.01,7.73 17.22,17.03 21.46,27.92c4.3,10.91 6.32,23.17 6.12,36.9c-0.21,13.67 -1.64,28.02 -4.18,43.01zm-5.12,22.41c-3.87,17.13 -7.89,34.99 -12.18,53.6c-4.27,18.62 -7.72,37.03 -10.3,55.21c-2.54,18.18 -3.44,35.82 -2.54,52.93c0.83,17.1 4.68,32.64 11.53,46.55c6.86,13.87 17.36,25.84 31.46,35.91c14.06,10.05 33.13,17.22 57.12,21.52c9.82,1.68 19.63,1.68 29.51,0c9.83,-1.73 18.36,-6.02 25.65,-12.87c7.71,-7.26 12.1,-14.97 13.15,-23.08c1.08,-8.14 0,-16.61 -3.2,-25.35c-3.18,-8.77 -8.12,-17.43 -14.76,-25.97c-6.65,-8.61 -13.69,-16.71 -21.17,-24.44c-7.49,-7.67 -14.98,-14.84 -22.44,-21.45c-7.54,-6.65 -13.81,-12.36 -18.95,-17.02l-7.67,-6.41c2.98,-13.7 6.08,-27.5 9.29,-41.43c3.19,-13.89 5.84,-25.09 8.01,-33.64c12.4,5.11 28.43,11.64 48.1,19.54c19.71,7.92 39.29,16.6 58.75,26.03c19.45,9.37 37.29,19.43 53.6,30.12c16.23,10.72 27.35,21.17 33.36,31.45c1.68,3 3.91,4.84 6.74,5.47c2.78,0.62 5.36,0.21 7.66,-1.27c2.36,-1.54 4.2,-3.66 5.44,-6.45c1.34,-2.75 1.11,-5.66 -0.62,-8.64c-7.26,-12.4 -19.45,-24.4 -36.54,-35.95c-17.16,-11.57 -35.94,-22.46 -56.5,-32.71c-20.53,-10.27 -41.16,-19.7 -61.89,-28.25c-20.79,-8.58 -38.19,-15.82 -52.34,-21.83c5.62,-24.37 6.13,-47.17 1.61,-68.33c-4.48,-21.17 -12.92,-39.7 -25.32,-55.52c-12.41,-15.82 -28.34,-28.63 -47.84,-38.48c-19.47,-9.84 -40.9,-15.84 -64.5,-18c-16.22,-1.27 -30.32,1.07 -42.32,7.1c-11.99,5.97 -19.3,15.38 -21.84,28.22c-2.97,13.26 -1.06,26.18 5.78,38.82c6.86,12.62 16.45,24.69 28.91,36.25c12.39,11.57 26.37,22.25 42.02,32.11c15.62,9.8 30.7,18.58 45.23,26.26z" id="path32"/>
    <path fill="#231f20" fill-rule="nonzero" d="m4212.80867,2862.02748c-3.48,7.7 -7.48,12.4 -12.19,14.12c-4.76,1.69 -9.54,1.28 -14.44,-1.3c-4.97,-2.54 -9.85,-6.53 -14.76,-11.87c-4.96,-5.35 -9.34,-11.24 -13.17,-17.65c-5.13,-8.13 -9.79,-16.77 -13.83,-25.98c-4.06,-9.19 -7.46,-18.07 -10.21,-26.62c-2.87,-8.58 -4.73,-16.57 -5.8,-24.06c-1.08,-7.49 -0.77,-13.39 0.98,-17.68c1.68,-4.7 5.03,-5.43 9.93,-2.22c4.92,3.19 10.27,7.8 16.03,13.81c5.8,5.96 11.01,12.08 15.73,18.27c4.7,6.2 7.41,9.95 8.31,11.24c8.58,12.4 15.77,24.89 21.55,37.55c5.78,12.6 9.68,22.75 11.87,30.48l0,1.91zm17.33,24.38c1.27,2.56 3.29,4.39 6.04,5.47c2.82,1.06 5.72,0.95 8.66,-0.33c1.36,-0.88 3.88,-2.58 7.76,-5.14c3.83,-2.57 7.67,-5.56 11.5,-8.98c3.91,-3.42 7.21,-6.72 9.92,-9.94c2.85,-3.23 4.01,-5.46 3.57,-6.74c-2.13,-5.15 -5.41,-13.38 -9.91,-24.72c-4.5,-11.32 -8.8,-23.83 -12.85,-37.54c-4.05,-13.68 -7.55,-27.48 -10.31,-41.37c-2.75,-13.89 -3.59,-26.11 -2.52,-36.58c1.02,-10.51 4.67,-18.41 10.86,-23.74c6.28,-5.36 15.99,-5.88 29.25,-1.62c17.91,5.58 36.11,13.69 54.55,24.38c18.38,10.71 36.04,22.67 52.91,35.96c16.91,13.23 33.06,27.37 48.46,42.32c15.38,14.98 29.32,29.55 41.69,43.64c2.2,2.59 4.76,3.85 7.68,3.85c3.01,0 5.62,-0.93 7.77,-2.86c2.15,-1.93 3.48,-4.4 4.14,-7.39c0.68,-2.99 -0.36,-5.78 -2.91,-8.34c-12.78,-14.97 -27.25,-30.27 -43.31,-45.89c-16,-15.6 -32.99,-30.35 -50.98,-44.28c-17.98,-13.91 -36.5,-26.33 -55.56,-37.23c-18.97,-10.89 -38.13,-19.34 -57.41,-25.31c-21.36,-6.45 -39.11,-8.69 -53.27,-6.78c-14.1,1.95 -25.01,7.4 -32.69,16.39c-7.72,8.99 -12.46,20.98 -14.16,35.92c-1.69,14.97 -0.6,32.1 3.27,51.34c-4.73,-6.01 -9.61,-11.66 -14.51,-17c-4.85,-5.35 -9.68,-10.16 -14.38,-14.43c-8.14,-6.41 -17.02,-11.02 -26.64,-13.82c-9.61,-2.78 -19.19,-1.16 -28.59,4.82c-5.99,3.86 -10.51,8.69 -13.45,14.45c-2.95,5.75 -4.92,11.95 -5.79,18.59c-0.82,6.63 -0.95,13.4 -0.31,20.24c0.66,6.82 1.58,13.25 2.87,19.23c1.7,8.11 4.5,16.91 8.36,26.32c3.83,9.42 8.57,18.41 14.13,26.95c5.54,8.57 11.67,16.45 18.26,23.74c6.64,7.28 13.83,13.04 21.5,17.33c9.46,5.13 18.05,7.81 25.97,8.03c7.98,0.19 14.89,-0.86 20.91,-3.21c5.94,-2.35 11.22,-5.58 15.73,-9.63c4.5,-4.11 8.22,-8.02 11.23,-11.86c1.64,4.27 2.56,6.2 2.56,5.76" id="path34"/>
    <path fill="none" stroke="#231f20" stroke-width="10" stroke-miterlimit="10" d="m4212.80867,2862.02748c-3.48,7.7 -7.48,12.4 -12.19,14.12c-4.76,1.69 -9.54,1.28 -14.44,-1.3c-4.97,-2.54 -9.85,-6.53 -14.76,-11.87c-4.96,-5.35 -9.34,-11.24 -13.17,-17.65c-5.13,-8.13 -9.79,-16.77 -13.83,-25.98c-4.06,-9.19 -7.46,-18.07 -10.21,-26.62c-2.87,-8.58 -4.73,-16.57 -5.8,-24.06c-1.08,-7.49 -0.77,-13.39 0.98,-17.68c1.68,-4.7 5.03,-5.43 9.93,-2.22c4.92,3.19 10.27,7.8 16.03,13.81c5.8,5.96 11.01,12.08 15.73,18.27c4.7,6.2 7.41,9.95 8.31,11.24c8.58,12.4 15.77,24.89 21.55,37.55c5.78,12.6 9.68,22.75 11.87,30.48l0,1.91zm17.33,24.38c1.27,2.56 3.29,4.39 6.04,5.47c2.82,1.06 5.72,0.95 8.66,-0.33c1.36,-0.88 3.88,-2.58 7.76,-5.14c3.83,-2.57 7.67,-5.56 11.5,-8.98c3.91,-3.42 7.21,-6.72 9.92,-9.94c2.85,-3.23 4.01,-5.46 3.57,-6.74c-2.13,-5.15 -5.41,-13.38 -9.91,-24.72c-4.5,-11.32 -8.8,-23.83 -12.85,-37.54c-4.05,-13.68 -7.55,-27.48 -10.31,-41.37c-2.75,-13.89 -3.59,-26.11 -2.52,-36.58c1.02,-10.51 4.67,-18.41 10.86,-23.74c6.28,-5.36 15.99,-5.88 29.25,-1.62c17.91,5.58 36.11,13.69 54.55,24.38c18.38,10.71 36.04,22.67 52.91,35.96c16.91,13.23 33.06,27.37 48.46,42.32c15.38,14.98 29.32,29.55 41.69,43.64c2.2,2.59 4.76,3.85 7.68,3.85c3.01,0 5.62,-0.93 7.77,-2.86c2.15,-1.93 3.48,-4.4 4.14,-7.39c0.68,-2.99 -0.36,-5.78 -2.91,-8.34c-12.78,-14.97 -27.25,-30.27 -43.31,-45.89c-16,-15.6 -32.99,-30.35 -50.98,-44.28c-17.98,-13.91 -36.5,-26.33 -55.56,-37.23c-18.97,-10.89 -38.13,-19.34 -57.41,-25.31c-21.36,-6.45 -39.11,-8.69 -53.27,-6.78c-14.1,1.95 -25.01,7.4 -32.69,16.39c-7.72,8.99 -12.46,20.98 -14.16,35.92c-1.69,14.97 -0.6,32.1 3.27,51.34c-4.73,-6.01 -9.61,-11.66 -14.51,-17c-4.85,-5.35 -9.68,-10.16 -14.38,-14.43c-8.14,-6.41 -17.02,-11.02 -26.64,-13.82c-9.61,-2.78 -19.19,-1.16 -28.59,4.82c-5.99,3.86 -10.51,8.69 -13.45,14.45c-2.95,5.75 -4.92,11.95 -5.79,18.59c-0.82,6.63 -0.95,13.4 -0.31,20.24c0.66,6.82 1.58,13.25 2.87,19.23c1.7,8.11 4.5,16.91 8.36,26.32c3.83,9.42 8.57,18.41 14.13,26.95c5.54,8.57 11.67,16.45 18.26,23.74c6.64,7.28 13.83,13.04 21.5,17.33c9.46,5.13 18.05,7.81 25.97,8.03c7.98,0.19 14.89,-0.86 20.91,-3.21c5.94,-2.35 11.22,-5.58 15.73,-9.63c4.5,-4.11 8.22,-8.02 11.23,-11.86c1.64,4.27 2.56,6.2 2.56,5.76z" id="path36"/>
    <path fill="#231f20" fill-rule="nonzero" d="m4580.52867,2923.63748c11.94,11.55 22.19,22.79 30.78,33.68c8.56,10.9 13.46,20.66 14.8,29.2c0.41,4.27 -2.3,4.91 -8.08,1.94c-5.78,-3.02 -11.86,-7.95 -18.27,-14.77c-6.45,-6.87 -11.95,-14.87 -16.71,-24.07c-4.71,-9.21 -5.53,-17.87 -2.52,-25.98m-98.82,-104.93c-3.04,0.64 -5.41,2.27 -7.06,4.81c-2.13,2.57 -2.94,5.33 -2.26,8.34c0.58,2.99 2.26,5.55 4.8,7.69c8.52,6.43 17.77,13.26 27.58,20.57c8.57,5.96 17.88,13.04 27.94,21.15c10.03,8.14 20.19,16.92 30.44,26.31c-6.41,10.71 -8.69,21.82 -6.71,33.37c1.91,11.58 6.28,22.26 13.11,32.1c9.45,13.24 20.14,23.75 32.16,31.45c6.33,3.83 13.13,5.98 20.17,6.39c7.09,0.46 13.71,-0.41 19.92,-2.56c6.19,-2.14 11.09,-5.24 14.75,-9.31c3.67,-4.07 5.21,-8.64 4.76,-13.8c-0.8,-5.12 -3.48,-10.88 -8,-17.32c-4.5,-6.39 -10.02,-13.06 -16.68,-19.88c-6.63,-6.84 -13.77,-13.81 -21.44,-20.85c-7.72,-7.06 -14.9,-14.02 -21.54,-20.87c9.62,-8.11 21.09,-12.73 34.34,-13.79c13.25,-1.06 25.65,-0.55 37.2,1.62c13.7,2.12 27.36,6.17 41.11,12.17c28.23,0.85 39.75,-7.05 34.67,-23.75c-1.8,-2.56 -5.78,-9.31 -11.87,-20.18c-6.29,-10.92 -13.48,-24.39 -21.83,-40.46c-8.38,-16.03 -17.37,-33.57 -26.99,-52.62c-9.57,-19.04 -18.61,-37.75 -26.97,-56.14c-8.32,-18.38 -15.59,-35.62 -21.79,-51.67c-6.19,-16.03 -10.08,-29.09 -11.57,-39.12c-1.52,-10.07 -0.3,-16.06 3.54,-17.98c3.88,-1.93 11.78,1.82 23.73,11.22c2.58,2.16 5.22,4.39 8.08,6.76c2.76,2.34 5.62,4.59 8.6,6.7c21.41,17.99 42.85,39.06 64.14,63.23c21.47,24.16 40.93,49.3 58.47,75.42c8.51,12.38 16.46,24.9 23.71,37.53c7.28,12.61 13.66,24.71 19.28,36.24c3.01,6.85 7.88,8.77 14.74,5.78c6.81,-2.99 8.78,-7.93 5.8,-14.75c-5.61,-12.42 -12.2,-25.14 -19.91,-38.19c-7.73,-13.05 -16.02,-26.21 -25.03,-39.46c-17.99,-26.98 -38.1,-52.83 -60.29,-77.66c-22.29,-24.8 -44.5,-46.64 -66.75,-65.47c-11.56,-9.81 -21.75,-16.64 -30.52,-20.51c-8.75,-3.86 -16.73,-5.9 -24.05,-6.11c-7.25,-0.18 -13.93,0.97 -20.04,3.54c-6.15,2.57 -12.49,5.58 -19.07,8.99c-1.33,0.45 -3.23,1.52 -5.83,3.19c-8.56,5.58 -13.56,14.56 -15.06,26.98c-1.48,12.39 -0.55,26.5 2.93,42.35c3.39,15.81 8.7,32.95 15.85,51.34c7.17,18.38 15.2,36.66 24.1,54.86c8.85,18.19 18.05,35.5 27.69,51.98c9.63,16.47 18.75,30.91 27.25,43.31c-14.94,-3.85 -29.04,-4.06 -42.26,-0.63c-13.24,3.41 -27.16,10.03 -41.74,19.89c-10.27,-9.41 -20.66,-18.4 -31.16,-26.96c-10.46,-8.57 -19.73,-16.03 -27.91,-22.47c-8.18,-6.4 -17.52,-13.26 -28.23,-20.5c-2.61,-2.16 -5.31,-2.9 -8.3,-2.27" id="path38"/>
    <path fill="none" stroke="#231f20" stroke-width="10" stroke-miterlimit="10" d="m4580.52867,2923.63748c11.94,11.55 22.19,22.79 30.78,33.68c8.56,10.9 13.46,20.66 14.8,29.2c0.41,4.27 -2.3,4.91 -8.08,1.94c-5.78,-3.02 -11.86,-7.95 -18.27,-14.77c-6.45,-6.87 -11.95,-14.87 -16.71,-24.07c-4.71,-9.21 -5.53,-17.87 -2.52,-25.98zm-98.82,-104.93c-3.04,0.64 -5.41,2.27 -7.06,4.81c-2.13,2.57 -2.94,5.33 -2.26,8.34c0.58,2.99 2.26,5.55 4.8,7.69c8.52,6.43 17.77,13.26 27.58,20.57c8.57,5.96 17.88,13.04 27.94,21.15c10.03,8.14 20.19,16.92 30.44,26.31c-6.41,10.71 -8.69,21.82 -6.71,33.37c1.91,11.58 6.28,22.26 13.11,32.1c9.45,13.24 20.14,23.75 32.16,31.45c6.33,3.83 13.13,5.98 20.17,6.39c7.09,0.46 13.71,-0.41 19.92,-2.56c6.19,-2.14 11.09,-5.24 14.75,-9.31c3.67,-4.07 5.21,-8.64 4.76,-13.8c-0.8,-5.12 -3.48,-10.88 -8,-17.32c-4.5,-6.39 -10.02,-13.06 -16.68,-19.88c-6.63,-6.84 -13.77,-13.81 -21.44,-20.85c-7.72,-7.06 -14.9,-14.02 -21.54,-20.87c9.62,-8.11 21.09,-12.73 34.34,-13.79c13.25,-1.06 25.65,-0.55 37.2,1.62c13.7,2.12 27.36,6.17 41.11,12.17c28.23,0.85 39.75,-7.05 34.67,-23.75c-1.8,-2.56 -5.78,-9.31 -11.87,-20.18c-6.29,-10.92 -13.48,-24.39 -21.83,-40.46c-8.38,-16.03 -17.37,-33.57 -26.99,-52.62c-9.57,-19.04 -18.61,-37.75 -26.97,-56.14c-8.32,-18.38 -15.59,-35.62 -21.79,-51.67c-6.19,-16.03 -10.08,-29.09 -11.57,-39.12c-1.52,-10.07 -0.3,-16.06 3.54,-17.98c3.88,-1.93 11.78,1.82 23.73,11.22c2.58,2.16 5.22,4.39 8.08,6.76c2.76,2.34 5.62,4.59 8.6,6.7c21.41,17.99 42.85,39.06 64.14,63.23c21.47,24.16 40.93,49.3 58.47,75.42c8.51,12.38 16.46,24.9 23.71,37.53c7.28,12.61 13.66,24.71 19.28,36.24c3.01,6.85 7.88,8.77 14.74,5.78c6.81,-2.99 8.78,-7.93 5.8,-14.75c-5.61,-12.42 -12.2,-25.14 -19.91,-38.19c-7.73,-13.05 -16.02,-26.21 -25.03,-39.46c-17.99,-26.98 -38.1,-52.83 -60.29,-77.66c-22.29,-24.8 -44.5,-46.64 -66.75,-65.47c-11.56,-9.81 -21.75,-16.64 -30.52,-20.51c-8.75,-3.86 -16.73,-5.9 -24.05,-6.11c-7.25,-0.18 -13.93,0.97 -20.04,3.54c-6.15,2.57 -12.49,5.58 -19.07,8.99c-1.33,0.45 -3.23,1.52 -5.83,3.19c-8.56,5.58 -13.56,14.56 -15.06,26.98c-1.48,12.39 -0.55,26.5 2.93,42.35c3.39,15.81 8.7,32.95 15.85,51.34c7.17,18.38 15.2,36.66 24.1,54.86c8.85,18.19 18.05,35.5 27.69,51.98c9.63,16.47 18.75,30.91 27.25,43.31c-14.94,-3.85 -29.04,-4.06 -42.26,-0.63c-13.24,3.41 -27.16,10.03 -41.74,19.89c-10.27,-9.41 -20.66,-18.4 -31.16,-26.96c-10.46,-8.57 -19.73,-16.03 -27.91,-22.47c-8.18,-6.4 -17.52,-13.26 -28.23,-20.5c-2.61,-2.16 -5.31,-2.9 -8.3,-2.27z" id="path40"/>
    <path fill="#231f20" fill-rule="nonzero" d="m4928.89867,2684.89748c-25.19,-14.97 -43.89,-28.97 -56.12,-42.02c-12.18,-13.05 -19.59,-23.82 -22.11,-32.42c-2.61,-8.54 -1.48,-13.99 3.23,-16.37c4.7,-2.32 11.07,0.14 19.2,7.41c3.04,2.57 7.3,7.7 12.86,15.4c5.57,7.71 11.19,15.82 17.03,24.38c5.73,8.56 11.02,17.02 15.7,25.33c4.7,8.33 8.09,14.46 10.21,18.29m155.93,530.71c3.48,-1.29 5.7,-3.12 6.73,-5.47c1.13,-2.33 1.22,-4.47 0.41,-6.4c-0.87,-1.94 -2.55,-3.52 -4.87,-4.81c-2.34,-1.29 -5.2,-1.29 -8.59,0c-8.98,5.55 -18.75,5.24 -29.29,-0.99c-10.44,-6.18 -21.12,-16.77 -32.03,-31.76c-10.93,-14.97 -21.93,-33.46 -33.04,-55.48c-11.16,-22.04 -21.98,-46 -32.41,-71.87c-10.53,-25.89 -20.36,-52.64 -29.52,-80.21c-9.25,-27.6 -17.32,-54.55 -24.39,-80.86c-7.11,-26.31 -13.09,-51.02 -17.98,-74.14c-4.97,-23.08 -8,-42.98 -9.3,-59.66c14.55,22.69 30.25,39.85 47.17,51.65c16.88,11.76 32.11,17.51 45.58,17.32c13.48,-0.22 23.46,-6.53 30.12,-18.92c6.61,-12.43 6.91,-31.04 0.98,-55.83c19.73,10.68 38.73,20.43 57.11,29.2c18.43,8.78 36.63,16.77 54.52,24.04c17.96,7.29 36.07,13.82 54.27,19.6c18.14,5.76 36.87,11.2 56.1,16.37c3.02,0.84 5.72,0.51 8.07,-1c2.33,-1.48 3.95,-3.74 4.77,-6.7c0.93,-3.02 0.68,-5.81 -0.61,-8.37c-1.35,-2.58 -3.67,-4.29 -7.05,-5.12c-20.52,-5.57 -40.19,-11.35 -59.07,-17.33c-18.79,-5.98 -37.54,-12.61 -56.11,-19.89c-18.62,-7.28 -37.35,-15.49 -56.16,-24.7c-18.87,-9.2 -38.25,-19.58 -58.36,-31.13c-1.32,-3.86 -3.67,-10.68 -7.1,-20.53c-3.39,-9.86 -7.91,-20.76 -13.5,-32.73c-5.56,-11.99 -12.18,-24.17 -19.86,-36.57c-7.71,-12.39 -16.5,-23.31 -26.29,-32.74c-9.91,-9.37 -20.71,-16.26 -32.46,-20.52c-11.77,-4.27 -24.25,-4.27 -37.54,0c-11.96,3.86 -19.64,9.17 -23.07,16.02c-3.42,6.85 -4.28,14.25 -2.55,22.15c1.68,7.92 4.95,15.82 9.91,23.74c4.91,7.92 10,14.44 15.09,19.55c4.25,4.72 9.82,9.96 16.71,15.73c6.79,5.81 13.88,11.56 21.13,17.34c7.28,5.81 14.68,11.24 22.16,16.36c7.46,5.15 14.21,9.41 20.23,12.84c8.14,22.25 13.04,39.26 14.75,51.02c1.68,11.79 1.07,19.34 -1.94,22.78c-3.02,3.43 -7.9,3.1 -14.74,-0.96c-6.89,-4.1 -14.42,-11.14 -22.76,-21.2c-8.4,-10.03 -17.13,-22.44 -26.38,-37.2c-9.16,-14.76 -17.61,-30.92 -25.27,-48.46c-11.19,-2.12 -19.84,-0.31 -26.02,5.47c-6.21,5.78 -10.94,13.25 -14.12,22.46c-3.25,9.17 -4.98,19.03 -5.48,29.5c-0.4,10.48 0,19.37 1.34,26.64c3.82,26.96 9.28,57.14 16.3,90.47c7.07,33.37 15.72,67.18 26.05,101.4c10.25,34.22 22.04,67.48 35.29,99.8c13.23,32.28 28.18,60.85 44.91,85.66c16.64,24.81 34.8,44.6 54.52,59.36c19.66,14.76 41.09,21.71 64.18,20.84c10.21,-0.84 20.09,-2.77 29.46,-5.76" id="path42"/>
    <path fill="none" stroke="#231f20" stroke-width="10" stroke-miterlimit="10" d="m4928.89867,2684.89748c-25.19,-14.97 -43.89,-28.97 -56.12,-42.02c-12.18,-13.05 -19.59,-23.82 -22.11,-32.42c-2.61,-8.54 -1.48,-13.99 3.23,-16.37c4.7,-2.32 11.07,0.14 19.2,7.41c3.04,2.57 7.3,7.7 12.86,15.4c5.57,7.71 11.19,15.82 17.03,24.38c5.73,8.56 11.02,17.02 15.7,25.33c4.7,8.33 8.09,14.46 10.21,18.29zm155.93,530.71c3.48,-1.29 5.7,-3.12 6.73,-5.47c1.13,-2.33 1.22,-4.47 0.41,-6.4c-0.87,-1.94 -2.55,-3.52 -4.87,-4.81c-2.34,-1.29 -5.2,-1.29 -8.59,0c-8.98,5.55 -18.75,5.24 -29.29,-0.99c-10.44,-6.18 -21.12,-16.77 -32.03,-31.76c-10.93,-14.97 -21.93,-33.46 -33.04,-55.48c-11.16,-22.04 -21.98,-46 -32.41,-71.87c-10.53,-25.89 -20.36,-52.64 -29.52,-80.21c-9.25,-27.6 -17.32,-54.55 -24.39,-80.86c-7.11,-26.31 -13.09,-51.02 -17.98,-74.14c-4.97,-23.08 -8,-42.98 -9.3,-59.66c14.55,22.69 30.25,39.85 47.17,51.65c16.88,11.76 32.11,17.51 45.58,17.32c13.48,-0.22 23.46,-6.53 30.12,-18.92c6.61,-12.43 6.91,-31.04 0.98,-55.83c19.73,10.68 38.73,20.43 57.11,29.2c18.43,8.78 36.63,16.77 54.52,24.04c17.96,7.29 36.07,13.82 54.27,19.6c18.14,5.76 36.87,11.2 56.1,16.37c3.02,0.84 5.72,0.51 8.07,-1c2.33,-1.48 3.95,-3.74 4.77,-6.7c0.93,-3.02 0.68,-5.81 -0.61,-8.37c-1.35,-2.58 -3.67,-4.29 -7.05,-5.12c-20.52,-5.57 -40.19,-11.35 -59.07,-17.33c-18.79,-5.98 -37.54,-12.61 -56.11,-19.89c-18.62,-7.28 -37.35,-15.49 -56.16,-24.7c-18.87,-9.2 -38.25,-19.58 -58.36,-31.13c-1.32,-3.86 -3.67,-10.68 -7.1,-20.53c-3.39,-9.86 -7.91,-20.76 -13.5,-32.73c-5.56,-11.99 -12.18,-24.17 -19.86,-36.57c-7.71,-12.39 -16.5,-23.31 -26.29,-32.74c-9.91,-9.37 -20.71,-16.26 -32.46,-20.52c-11.77,-4.27 -24.25,-4.27 -37.54,0c-11.96,3.86 -19.64,9.17 -23.07,16.02c-3.42,6.85 -4.28,14.25 -2.55,22.15c1.68,7.92 4.95,15.82 9.91,23.74c4.91,7.92 10,14.44 15.09,19.55c4.25,4.72 9.82,9.96 16.71,15.73c6.79,5.81 13.88,11.56 21.13,17.34c7.28,5.81 14.68,11.24 22.16,16.36c7.46,5.15 14.21,9.41 20.23,12.84c8.14,22.25 13.04,39.26 14.75,51.02c1.68,11.79 1.07,19.34 -1.94,22.78c-3.02,3.43 -7.9,3.1 -14.74,-0.96c-6.89,-4.1 -14.42,-11.14 -22.76,-21.2c-8.4,-10.03 -17.13,-22.44 -26.38,-37.2c-9.16,-14.76 -17.61,-30.92 -25.27,-48.46c-11.19,-2.12 -19.84,-0.31 -26.02,5.47c-6.21,5.78 -10.94,13.25 -14.12,22.46c-3.25,9.17 -4.98,19.03 -5.48,29.5c-0.4,10.48 0,19.37 1.34,26.64c3.82,26.96 9.28,57.14 16.3,90.47c7.07,33.37 15.72,67.18 26.05,101.4c10.25,34.22 22.04,67.48 35.29,99.8c13.23,32.28 28.18,60.85 44.91,85.66c16.64,24.81 34.8,44.6 54.52,59.36c19.66,14.76 41.09,21.71 64.18,20.84c10.21,-0.84 20.09,-2.77 29.46,-5.76z" id="path44"/>
    <path fill="#231f20" fill-rule="nonzero" d="m5451.30867,3219.45748c3.38,-1.29 5.73,-2.97 7.07,-5.14c1.21,-2.15 1.57,-4.18 0.91,-6.09c-0.63,-1.92 -2.11,-3.3 -4.46,-4.2c-2.43,-0.81 -5.22,-0.61 -8.73,0.68c-14.07,-2.57 -29.17,-13.29 -45.22,-32.09c-16.01,-18.83 -32.01,-42.89 -48.07,-72.2c-16.08,-29.31 -31.46,-62.35 -46.21,-99.15c-14.79,-36.8 -28.04,-74.11 -39.78,-111.97c-11.83,-37.84 -21.42,-75.08 -28.93,-111.66c-7.47,-36.58 -11.81,-69.23 -13.15,-97.87c-0.85,-21.8 3.4,-36.36 12.85,-43.61c9.4,-7.29 22.18,-9.32 38.2,-6.09c16.02,3.2 34.52,10.44 55.54,21.8c20.91,11.32 42.44,24.7 64.47,40.11c22.03,15.42 43.6,31.54 64.83,48.46c21.13,16.88 40.09,32.5 56.74,46.82c16.73,14.35 30.15,26.34 40.41,35.95c10.31,9.64 15.62,14.66 16.12,15.08c2.09,2.55 4.67,4.18 7.62,4.82c2.98,0.62 5.57,-0.12 7.78,-2.27c2.52,-2.12 4.09,-4.69 4.8,-7.67c0.63,-3.02 -0.13,-5.79 -2.28,-8.37c1.71,1.71 -0.31,-0.3 -6.07,-6.09c-5.82,-5.78 -14.4,-13.77 -25.72,-24.06c-11.34,-10.28 -24.77,-22.26 -40.42,-35.93c-15.63,-13.7 -32.6,-27.85 -51.01,-42.35c-18.36,-14.55 -37.48,-28.68 -57.07,-42.34c-19.7,-13.71 -39.07,-25.82 -58.07,-36.29c-19.06,-10.48 -37.37,-18.61 -54.86,-24.37c-17.59,-5.78 -33.45,-7.81 -47.52,-6.09c-12.42,1.26 -22.99,4.39 -31.74,9.28c-8.77,4.92 -16.42,10.7 -22.83,17.35c-6.44,6.6 -11.66,13.78 -15.71,21.48c-4.08,7.73 -7.19,15.16 -9.29,22.5c-3.43,10.65 -5.27,22.1 -5.43,34.29c-0.21,12.2 0.4,24.39 1.88,36.59c1.51,12.19 3.55,24.27 6.1,36.25c2.56,11.98 4.91,23.54 7.06,34.66c3.01,13.26 7.22,29.74 12.53,49.39c5.37,19.69 11.87,41.18 19.58,64.52c7.68,23.29 16.32,47.38 25.93,72.15c9.67,24.84 20.36,48.9 32.16,72.23c11.74,23.29 24.36,44.91 37.83,64.79c13.49,19.92 27.8,36.57 42.95,50.08c15.24,13.47 31.08,22.87 47.52,28.23c16.51,5.36 33.73,4.81 51.69,-1.61" id="path46"/>
    <path fill="none" stroke="#231f20" stroke-width="10" stroke-miterlimit="10" d="m5451.30867,3219.45748c3.38,-1.29 5.73,-2.97 7.07,-5.14c1.21,-2.15 1.57,-4.18 0.91,-6.09c-0.63,-1.92 -2.11,-3.3 -4.46,-4.2c-2.43,-0.81 -5.22,-0.61 -8.73,0.68c-14.07,-2.57 -29.17,-13.29 -45.22,-32.09c-16.01,-18.83 -32.01,-42.89 -48.07,-72.2c-16.08,-29.31 -31.46,-62.35 -46.21,-99.15c-14.79,-36.8 -28.04,-74.11 -39.78,-111.97c-11.83,-37.84 -21.42,-75.08 -28.93,-111.66c-7.47,-36.58 -11.81,-69.23 -13.15,-97.87c-0.85,-21.8 3.4,-36.36 12.85,-43.61c9.4,-7.29 22.18,-9.32 38.2,-6.09c16.02,3.2 34.52,10.44 55.54,21.8c20.91,11.32 42.44,24.7 64.47,40.11c22.03,15.42 43.6,31.54 64.83,48.46c21.13,16.88 40.09,32.5 56.74,46.82c16.73,14.35 30.15,26.34 40.41,35.95c10.31,9.64 15.62,14.66 16.12,15.08c2.09,2.55 4.67,4.18 7.62,4.82c2.98,0.62 5.57,-0.12 7.78,-2.27c2.52,-2.12 4.09,-4.69 4.8,-7.67c0.63,-3.02 -0.13,-5.79 -2.28,-8.37c1.71,1.71 -0.31,-0.3 -6.07,-6.09c-5.82,-5.78 -14.4,-13.77 -25.72,-24.06c-11.34,-10.28 -24.77,-22.26 -40.42,-35.93c-15.63,-13.7 -32.6,-27.85 -51.01,-42.35c-18.36,-14.55 -37.48,-28.68 -57.07,-42.34c-19.7,-13.71 -39.07,-25.82 -58.07,-36.29c-19.06,-10.48 -37.37,-18.61 -54.86,-24.37c-17.59,-5.78 -33.45,-7.81 -47.52,-6.09c-12.42,1.26 -22.99,4.39 -31.74,9.28c-8.77,4.92 -16.42,10.7 -22.83,17.35c-6.44,6.6 -11.66,13.78 -15.71,21.48c-4.08,7.73 -7.19,15.16 -9.29,22.5c-3.43,10.65 -5.27,22.1 -5.43,34.29c-0.21,12.2 0.4,24.39 1.88,36.59c1.51,12.19 3.55,24.27 6.1,36.25c2.56,11.98 4.91,23.54 7.06,34.66c3.01,13.26 7.22,29.74 12.53,49.39c5.37,19.69 11.87,41.18 19.58,64.52c7.68,23.29 16.32,47.38 25.93,72.15c9.67,24.84 20.36,48.9 32.16,72.23c11.74,23.29 24.36,44.91 37.83,64.79c13.49,19.92 27.8,36.57 42.95,50.08c15.24,13.47 31.08,22.87 47.52,28.23c16.51,5.36 33.73,4.81 51.69,-1.61z" id="path48"/>
    <path fill="#231f20" fill-rule="nonzero" d="m5617.47867,2804.94748c7.71,2.99 15.39,6.38 23.11,10.24c7.69,3.85 15.03,8.1 22.16,12.84c7.05,4.69 13.3,9.62 18.89,14.78c5.53,5.12 9.85,10.66 12.86,16.65c4.71,9.83 6.7,17.54 6.13,23.1c-0.65,5.57 -3.26,8.98 -7.76,10.27c-4.5,1.3 -10.18,0.41 -16.98,-2.56c-6.88,-2.99 -13.93,-8.15 -21.17,-15.42c-7.26,-7.26 -14.34,-16.77 -21.22,-28.54c-6.83,-11.78 -12.18,-25.57 -16.02,-41.36m-5.13,-25.68c-2.55,-15.84 -2.05,-29.96 1.63,-42.37c3.6,-12.4 9.62,-22.34 17.97,-29.84c8.28,-7.5 19.07,-11.68 32.39,-12.52c13.23,-0.84 28.23,2.36 44.88,9.61c22.24,9.85 43.03,22.25 62.25,37.23c19.29,14.98 35.94,29.45 50.13,43.34c14.08,13.87 29.45,30.89 46.17,50.99c1.69,2.58 4.01,4.19 7.05,4.83c2.97,0.64 5.75,-0.14 8.34,-2.25c2.58,-2.14 4.05,-4.71 4.45,-7.7c0.49,-3 -0.4,-5.8 -2.54,-8.37c-11.98,-14.95 -23.32,-28.13 -34.02,-39.45c-10.7,-11.34 -23.52,-23.64 -38.47,-36.89c-14.99,-13.23 -31.34,-25.76 -49.07,-37.57c-17.81,-11.72 -36.85,-21.68 -57.15,-29.81c-20.31,-8.13 -41.17,-12.81 -62.55,-14.12c-25.26,-1.27 -45.11,4.3 -59.69,16.68c-14.56,12.41 -24.28,28.23 -29.19,47.5c-4.92,19.25 -5.52,40.12 -1.95,62.54c3.64,22.51 10.69,43.35 21.18,62.58c10.43,19.25 24.18,34.86 41.05,46.85c16.95,11.99 36.04,17.12 57.46,15.39c18.82,-1.7 32.61,-8.77 41.39,-21.17c8.77,-12.42 8.84,-27.37 0.32,-44.94c-4.27,-8.5 -10.26,-16.34 -17.94,-23.41c-7.77,-7.05 -16.27,-13.46 -25.68,-19.25c-9.41,-5.75 -19.28,-10.98 -29.55,-15.72c-10.26,-4.69 -19.89,-8.74 -28.86,-12.16" id="path50"/>
    <path fill="none" stroke="#231f20" stroke-width="10" stroke-miterlimit="10" d="m5617.47867,2804.94748c7.71,2.99 15.39,6.38 23.11,10.24c7.69,3.85 15.03,8.1 22.16,12.84c7.05,4.69 13.3,9.62 18.89,14.78c5.53,5.12 9.85,10.66 12.86,16.65c4.71,9.83 6.7,17.54 6.13,23.1c-0.65,5.57 -3.26,8.98 -7.76,10.27c-4.5,1.3 -10.18,0.41 -16.98,-2.56c-6.88,-2.99 -13.93,-8.15 -21.17,-15.42c-7.26,-7.26 -14.34,-16.77 -21.22,-28.54c-6.83,-11.78 -12.18,-25.57 -16.02,-41.36zm-5.13,-25.68c-2.55,-15.84 -2.05,-29.96 1.63,-42.37c3.6,-12.4 9.62,-22.34 17.97,-29.84c8.28,-7.5 19.07,-11.68 32.39,-12.52c13.23,-0.84 28.23,2.36 44.88,9.61c22.24,9.85 43.03,22.25 62.25,37.23c19.29,14.98 35.94,29.45 50.13,43.34c14.08,13.87 29.45,30.89 46.17,50.99c1.69,2.58 4.01,4.19 7.05,4.83c2.97,0.64 5.75,-0.14 8.34,-2.25c2.58,-2.14 4.05,-4.71 4.45,-7.7c0.49,-3 -0.4,-5.8 -2.54,-8.37c-11.98,-14.95 -23.32,-28.13 -34.02,-39.45c-10.7,-11.34 -23.52,-23.64 -38.47,-36.89c-14.99,-13.23 -31.34,-25.76 -49.07,-37.57c-17.81,-11.72 -36.85,-21.68 -57.15,-29.81c-20.31,-8.13 -41.17,-12.81 -62.55,-14.12c-25.26,-1.27 -45.11,4.3 -59.69,16.68c-14.56,12.41 -24.28,28.23 -29.19,47.5c-4.92,19.25 -5.52,40.12 -1.95,62.54c3.64,22.51 10.69,43.35 21.18,62.58c10.43,19.25 24.18,34.86 41.05,46.85c16.95,11.99 36.04,17.12 57.46,15.39c18.82,-1.7 32.61,-8.77 41.39,-21.17c8.77,-12.42 8.84,-27.37 0.32,-44.94c-4.27,-8.5 -10.26,-16.34 -17.94,-23.41c-7.77,-7.05 -16.27,-13.46 -25.68,-19.25c-9.41,-5.75 -19.28,-10.98 -29.55,-15.72c-10.26,-4.69 -19.89,-8.74 -28.86,-12.16z" id="path52"/>
    <path fill="none" stroke="#231f20" stroke-width="30" stroke-miterlimit="10" d="m3462.45867,2731.72748l214.16,-193.57c271.93,245.85 394.23,324.56 394.23,491.76c0,86.15 -88.34,194.08 -203.82,194.08c-81.61,0 -149.59,-45.28 -190.41,-110c-40.73,64.72 -108.68,110 -190.27,110c-115.64,0 -203.95,-107.93 -203.95,-194.08" id="path54"/>
    <path fill="#231f20" fill-rule="nonzero" d="m2649.98867,1945.21748l3.73,-55.75c15.48,-5 32.97,-7.44 52.51,-7.44c60.71,0 91.07,36.41 91.07,109.21c0,39.66 -8.05,69.11 -24.16,88.3c-16.1,19.24 -40.88,28.81 -74.35,28.81c-14.55,0 -29.44,-2.5 -44.6,-7.41l-4.2,-58.59l0,-97.13zm-42.29,-79l5.55,79.49l0,97.1l-5.55,79.5l-13.94,3.22l0.46,8.84c37.81,1.21 74.2,1.87 109.2,1.87c46.17,0 80.44,-10.98 102.72,-33c22.31,-21.98 33.51,-56.84 33.51,-104.57c0,-97.61 -47.14,-146.39 -141.33,-146.39l-104.1,1.85l-0.46,8.81" id="path56"/>
    <path fill="#231f20" fill-rule="nonzero" d="m2957.15867,1969.88748l90.21,0.44c0,17.64 -3.43,30.34 -10.24,38.1c-6.84,7.77 -17.49,11.64 -32.07,11.64c-28.81,0 -44.8,-16.76 -47.9,-50.18m44.18,-123.19c-24.78,0 -45.16,8.51 -61.12,25.55c-15.95,17.04 -23.95,40.68 -23.95,70.87c0,30.24 8.23,54.92 24.64,74.15c16.44,19.19 38.22,28.83 65.31,28.83c27.12,0 47.18,-6.24 60.19,-18.61c13.02,-12.38 19.52,-31.78 19.52,-58.09c0,-7.43 -0.48,-15.34 -1.38,-23.7l-128.29,0c0,-22.03 4.79,-39.7 14.41,-52.97c9.56,-13.33 23.38,-20.03 41.34,-20.03c17.97,0 35.94,6.86 53.93,20.48l3.26,19.07l7.91,-0.49l3.24,-64.6l-7.46,0l-4.16,10.68c-20.14,-7.44 -42.61,-11.14 -67.39,-11.14" id="path58"/>
    <path fill="#231f20" fill-rule="nonzero" d="m3167.72867,1853.18748l-7.43,-9.29l-6.98,2.35l19.06,57.15l7.44,-1.38l-1.84,-19.08c15.78,-6.83 30.18,-10.23 43.2,-10.23c13.01,0 22.95,2.36 29.77,6.98c6.8,4.68 10.2,10.85 10.2,18.62c0,7.69 -3.59,14.15 -10.71,19.25c-7.13,5.13 -15.77,9.62 -26,13.48c-10.22,3.88 -20.39,8.15 -30.45,12.79c-10.07,4.65 -18.66,11.15 -25.77,19.54c-7.14,8.35 -10.7,19.28 -10.7,32.73c0,13.5 7.42,25.2 22.3,35.12c14.86,9.93 33.76,14.88 56.68,14.88c13.34,0 26.81,-1.73 40.48,-5.12l4.15,10.66l7.44,0l-2.77,-62.25l-7.88,0.47l-2.34,17.2c-21.39,9.27 -38.57,13.94 -51.61,13.94c-21.4,0 -32.1,-7.14 -32.1,-21.4c0,-6.19 3.68,-11.63 10.97,-16.26c7.26,-4.67 16.01,-8.83 26.25,-12.58c10.22,-3.7 20.42,-7.86 30.67,-12.51c10.25,-4.68 18.97,-11.34 26.26,-19.99c7.29,-8.66 10.93,-19.03 10.93,-31.12c0,-18.31 -7.61,-32.95 -22.76,-43.97c-15.2,-10.99 -35.33,-16.46 -60.45,-16.46c-13.94,0 -29.28,2.14 -46.01,6.48" id="path60"/>
    <path fill="#231f20" fill-rule="nonzero" d="m3378.75867,1853.18748l-7.49,-9.29l-6.94,2.35l19.02,57.15l7.48,-1.38l-1.87,-19.08c15.83,-6.83 30.17,-10.23 43.23,-10.23c13.01,0 22.93,2.36 29.73,6.98c6.83,4.68 10.2,10.85 10.2,18.62c0,7.69 -3.57,14.15 -10.66,19.25c-7.15,5.13 -15.78,9.62 -26.03,13.48c-10.2,3.88 -20.4,8.15 -30.46,12.79c-10.09,4.65 -18.66,11.15 -25.76,19.54c-7.15,8.35 -10.7,19.28 -10.7,32.73c0,13.5 7.46,25.2 22.32,35.12c14.85,9.93 33.78,14.88 56.7,14.88c13.35,0 26.75,-1.73 40.42,-5.12l4.19,10.66l7.44,0l-2.77,-62.25l-7.91,0.47l-2.34,17.2c-21.39,9.27 -38.59,13.94 -51.61,13.94c-21.4,0 -32.07,-7.14 -32.07,-21.4c0,-6.19 3.66,-11.63 10.97,-16.26c7.24,-4.67 16.01,-8.83 26.26,-12.58c10.2,-3.7 20.43,-7.86 30.63,-12.51c10.25,-4.68 18.97,-11.34 26.31,-19.99c7.25,-8.66 10.87,-19.03 10.87,-31.12c0,-18.31 -7.57,-32.95 -22.79,-43.97c-15.15,-10.99 -35.26,-16.46 -60.38,-16.46c-13.95,0 -29.25,2.14 -45.99,6.48" id="path62"/>
    <path fill="#231f20" fill-rule="nonzero" d="m3620.84867,1969.88748l90.18,0.44c0,17.64 -3.38,30.34 -10.25,38.1c-6.82,7.77 -17.49,11.64 -32.02,11.64c-28.85,0 -44.81,-16.76 -47.91,-50.18m44.14,-123.19c-24.78,0 -45.14,8.51 -61.1,25.55c-15.96,17.04 -23.92,40.68 -23.92,70.87c0,30.24 8.19,54.92 24.64,74.15c16.38,19.19 38.17,28.83 65.28,28.83c27.12,0 47.18,-6.24 60.2,-18.61c13,-12.38 19.53,-31.78 19.53,-58.09c0,-7.43 -0.47,-15.34 -1.37,-23.7l-128.35,0c0,-22.03 4.86,-39.7 14.44,-52.97c9.62,-13.33 23.41,-20.03 41.36,-20.03c17.98,0 35.95,6.86 53.9,20.48l3.24,19.07l7.92,-0.49l3.28,-64.6l-7.47,0l-4.15,10.68c-20.16,-7.44 -42.61,-11.14 -67.43,-11.14" id="path64"/>
    <path fill="#231f20" fill-rule="nonzero" d="m3824.44867,2038.62748l59.95,5.13l-1.86,-30.68c8.06,13.04 15.34,21.78 21.82,26.26c6.53,4.5 14.44,6.76 23.69,6.76c9.3,0 18.44,-0.78 27.45,-2.34l-2.33,-53.9l-7.91,0l-3.24,19.98c-8.97,3.09 -16.5,4.62 -22.55,4.62c-6,0 -11.67,-1.53 -16.96,-4.62c-5.25,-3.12 -12.26,-9.46 -20.87,-19.06l-1.92,-34.42l0,-20.44l3.73,-70.16l27.92,-3.23l-0.48,-8.85l-84.58,0l-0.49,8.85l13.97,3.23l4.19,70.16l0,20.44l-4.19,70.18l-15.77,3.27" id="path66"/>
    <path fill="#231f20" fill-rule="nonzero" d="m4026.58867,1903.83748l1.87,112.5l-24.17,-0.91l0,15.3l24.17,8.4l25.54,46.44l7.42,0l2.78,-46.44l46.94,0l-2.28,-20l-44.66,-1.85l0,-104.57c0,-19.87 2.04,-32.61 6.09,-38.38c3.96,-5.69 13.16,-8.57 27.4,-8.57l18.12,0l0.95,-7.92c-11.45,-7.44 -25.75,-11.14 -42.8,-11.14c-17,0 -29.17,4.36 -36.45,13c-7.29,8.69 -10.92,23.4 -10.92,44.14" id="path68"/>
    <path fill="#231f20" fill-rule="nonzero" d="m4326.77867,1919.65748l-2.29,-21.35c24.16,-13.93 45.76,-20.93 64.63,-20.93c18.87,0 33.74,3.86 44.55,11.6c10.87,7.76 16.35,17.89 16.35,30.46c0,12.55 -3.62,23.26 -10.72,32.08c-7.15,8.78 -16.1,15.54 -26.97,20.2c-10.83,4.65 -22.49,9.81 -35.07,15.54c-12.55,5.76 -24.22,11.36 -35.08,16.75c-10.87,5.44 -19.87,13.39 -26.97,23.94c-7.1,10.54 -10.69,23.06 -10.69,37.66c0,22.6 9.35,40.97 28.13,55.07c18.73,14.09 42.99,21.15 72.71,21.15c18.26,0 37.04,-2.95 56.2,-8.82l3.33,12.09l8.81,0l-3.7,-78.57l-8.85,0l-3.27,19.98c-26.35,17.36 -49.41,26.04 -69.24,26.04c-13.63,0 -24.15,-3.02 -31.61,-9.07c-7.47,-6.03 -11.19,-15.12 -11.19,-27.21c0,-12.05 4.81,-22.44 14.44,-31.11c9.59,-8.69 21.35,-15.69 35.12,-20.92c13.73,-5.26 27.54,-10.92 41.32,-16.97c13.83,-6.05 25.46,-15.03 35.14,-26.98c9.57,-11.91 14.36,-26.85 14.36,-44.83c0,-27.26 -10.05,-48.88 -30.19,-64.83c-20.11,-15.96 -47.09,-23.93 -80.88,-23.93c-19.84,0 -42.13,3.59 -66.91,10.7l-6.53,-10.24l-8.34,2.77l25.08,72.08" id="path70"/>
    <path fill="#231f20" fill-rule="nonzero" d="m4565.24867,1853.67748l-0.47,8.85l13.97,3.23l4.13,71.58l0,114.3l-4.13,70.21l-15.79,3.28l0.39,8.81l59.96,5.09l-4.59,-87.39l0,-32.07c21.64,17.67 42.65,26.53 62.9,26.53c20.32,0 35.51,-5.9 45.55,-17.67c10.12,-11.79 15.12,-28.22 15.12,-49.26l0,-42.77l3.72,-70.64l13.97,-3.23l-0.44,-8.85l-76.72,0l-0.48,9.76l19.97,2.32l4.24,70.64l0,40.9c0,11.75 -3.34,20.82 -10.05,27.16c-6.63,6.38 -17.12,9.58 -31.37,9.58c-14.21,0 -29.73,-6.22 -46.41,-18.61l0,-58.09l4.14,-71.58l20.92,-2.32l-0.51,-9.76" id="path72"/>
    <path fill="#231f20" fill-rule="nonzero" d="m4928.18867,1872.70748c32.89,0 49.28,22.78 49.28,68.32c0,52.66 -19,79.03 -57.12,79.03c-17.07,0 -29.37,-5.35 -36.99,-16.05c-7.59,-10.68 -11.39,-28.86 -11.39,-54.61c0,-51.09 18.72,-76.69 56.22,-76.69m-4.61,-26.02c-28.85,0 -51.28,8.46 -67.38,25.37c-16.17,16.86 -24.22,40.7 -24.22,71.54c0,30.84 8.57,55.59 25.6,74.36c17.05,18.75 40.07,28.14 69.06,28.14c28.92,0 51.35,-8.31 67.32,-24.89c15.96,-16.54 23.97,-40.43 23.97,-71.56c0,-31.14 -8.53,-56.09 -25.58,-74.8c-17.06,-18.77 -39.94,-28.16 -68.77,-28.16" id="path74"/>
    <path fill="#231f20" fill-rule="nonzero" d="m5224.99867,1889.22748c8.49,11.31 12.72,29.22 12.72,53.68c0,24.47 -4.23,43.44 -12.72,56.96c-8.53,13.45 -19.82,20.2 -33.93,20.2c-14.15,0 -27.74,-6.83 -40.7,-20.47l-2.28,-42.77l0,-79.45c14.59,-3.45 26.73,-5.12 36.7,-5.12c18.26,0 31.68,5.69 40.21,16.97m-112.75,-49.04l0,116.18l-4.14,70.17l-15.83,3.28l0.48,8.81l57.61,4.18l0,-19.06c16.73,14.88 35.23,22.36 55.33,22.36c20.11,0 37.18,-8.94 51.15,-26.73c13.91,-17.85 20.92,-41.67 20.92,-71.59c0,-29.9 -8.78,-54.23 -26.07,-72.94c-17.34,-18.77 -41.17,-28.15 -71.58,-28.15c-9.92,0 -20.6,1.22 -32.03,3.7l0,-10.21l3.67,-70.15l20.96,-2.33l-0.51,-9.79l-77.59,0l-0.49,8.88l13.98,3.24" id="path76"/>
   </g>
  </g>
 </g>
</svg>